<svg width="63" height="63" viewBox="0 0 63 63" fill="none" xmlns="http://www.w3.org/2000/svg">
<rect width="63" height="63" rx="31.5" fill="white"/>
<path d="M13.9906 22.2979C13.9906 19.1489 14.1643 17.0213 17.1173 17.0213V16.5106H6V17.0213C8.95303 17.0213 9.12674 19.1489 9.12674 22.2979V41.7021C9.12674 44.8511 8.95303 46.9787 6 46.9787V47.4894H17.1173V46.9787C14.1643 46.9787 13.9906 44.8511 13.9906 41.7021V22.2979ZM23.9787 23.9574C28.0175 19.3191 30.7533 17.2766 32.2299 17.0213V16.5106H23.8919V17.0213C24.7604 17.1064 25.4118 17.4468 25.4118 18.5106C25.4118 19.7021 24.5433 21.0213 22.7194 23.1915L15.1197 32.1702C23.2839 44.766 24.9341 47.6596 28.6689 47.6596C29.6242 47.6596 31.4916 47.6596 33.0116 47.4894V46.9787C30.7968 46.4681 26.7581 41.234 19.1149 29.617L23.9787 23.9574Z" fill="#131212"/>
<path d="M46.0118 48C50.1808 48 53.2207 46.8085 55.2183 45.8723L56 39.0638H55.4789C53.3944 44 50.3545 46.8085 45.8381 46.8085C40.1926 46.8085 36.4579 40.8511 36.4579 32C36.4579 23.1489 40.1057 17.1915 45.8381 17.1915C50.3545 17.1915 53.047 19.8298 55.1315 24.1702H55.6526L55.392 18.2979C53.3944 17.2766 50.3545 16 46.0118 16C37.3698 16 31.0729 22.5532 31.0729 32.0851C31.0729 41.8723 37.3698 48 46.0118 48Z" fill="#131212"/>
</svg>
